<?xml version="1.0" standalone="no"?>
<!DOCTYPE svg PUBLIC "-//W3C//DTD SVG 20010904//EN"
 "http://www.w3.org/TR/2001/REC-SVG-20010904/DTD/svg10.dtd">
<svg version="1.0" xmlns="http://www.w3.org/2000/svg"
 width="378.000000pt" height="378.000000pt" viewBox="0 0 378.000000 378.000000"
 preserveAspectRatio="xMidYMid meet">
<metadata>
Created by potrace 1.14, written by Peter Selinger 2001-2017
</metadata>
<g transform="translate(0.000000,378.000000) scale(0.100000,-0.100000)"
fill="#000000" stroke="none">
<path d="M2138 3433 c-84 -87 -117 -144 -162 -283 -27 -86 -30 -107 -30 -215
1 -66 5 -163 9 -215 9 -115 0 -130 -61 -110 -29 10 -193 124 -214 149 -13 15
-109 90 -140 108 -54 33 -168 73 -207 73 -39 0 -58 -9 -120 -56 -24 -18 -66
-40 -93 -48 -27 -8 -95 -35 -152 -59 -57 -25 -168 -61 -248 -81 -252 -63 -374
-98 -421 -121 -25 -13 -63 -26 -85 -30 -139 -24 -153 -64 -54 -155 81 -75 251
-262 285 -315 18 -27 69 -142 115 -255 91 -227 111 -270 134 -289 9 -8 16 -23
16 -36 0 -35 102 -132 157 -149 13 -4 26 1 38 13 17 20 18 20 55 1 21 -11 83
-29 137 -41 122 -26 133 -32 133 -70 0 -41 -21 -88 -68 -151 -59 -81 -87 -143
-126 -279 -38 -134 -73 -346 -59 -359 7 -8 132 -73 143 -76 3 0 19 -6 35 -13
17 -7 62 -12 100 -12 109 1 107 0 101 18 -7 17 -9 17 139 -8 99 -16 249 -6
370 27 180 48 196 47 282 -25 71 -59 112 -81 153 -81 51 0 144 101 208 226 28
56 76 134 107 173 78 101 90 136 89 251 -1 155 -54 284 -218 533 -18 27 -18
27 4 27 35 0 168 -37 255 -70 156 -61 346 -174 507 -301 102 -82 170 -154 268
-284 40 -52 77 -98 82 -101 13 -8 45 23 52 52 5 20 -7 40 -69 114 -115 135
-201 220 -293 288 -212 157 -488 301 -660 345 l-53 13 148 18 c176 21 249 46
379 131 100 65 135 99 170 167 46 90 114 277 120 331 6 52 5 56 -29 94 -48 53
-112 86 -237 122 -133 39 -153 58 -213 206 -24 61 -50 128 -57 150 -38 119
-98 192 -310 376 -156 134 -203 185 -263 282 -27 42 -54 77 -61 77 -7 0 -46
-35 -88 -77z"/>
</g>
</svg>
